<svg width="192" height="192" viewBox="0 0 192 192" fill="none" xmlns="http://www.w3.org/2000/svg">
<path d="M57.75 33.5L68 42.25L78 33.5C80.25 31.75 83.5 31.75 85.75 33.5L96 42.25L106 33.5C108.25 31.75 111.5 31.75 113.75 33.5L124 42.25L134 33.5C135.75 32 138.25 31.75 140.5 32.75C142.5 33.75 144 35.75 144 38V154C144 156.5 142.5 158.5 140.5 159.5C138.25 160.5 135.75 160.25 134 158.75L124 150L113.75 158.75C111.5 160.5 108.25 160.5 106 158.75L96 150L85.75 158.75C83.5 160.5 80.25 160.5 78 158.75L68 150L57.75 158.75C56 160.25 53.5 160.5 51.5 159.5C49.25 158.5 48 156.5 48 154V38C48 35.75 49.25 33.75 51.5 32.75C53.5 31.75 56 32 57.75 33.5ZM60 141L64 137.5C66.25 135.75 69.5 135.75 71.75 137.5L82 146.25L92 137.5C94.25 135.75 97.5 135.75 99.75 137.5L110 146.25L120 137.5C122.25 135.75 125.5 135.75 127.75 137.5L132 141V51.25L127.75 54.75C125.5 56.5 122.25 56.5 120 54.75L110 46L99.75 54.75C97.5 56.5 94.25 56.5 92 54.75L82 46L71.75 54.75C69.5 56.5 66.25 56.5 64 54.75L60 51.25V141ZM78 68H114C117.25 68 120 70.75 120 74C120 77.5 117.25 80 114 80H78C74.5 80 72 77.5 72 74C72 70.75 74.5 68 78 68ZM78 112H114C117.25 112 120 114.75 120 118C120 121.5 117.25 124 114 124H78C74.5 124 72 121.5 72 118C72 114.75 74.5 112 78 112ZM72 96C72 92.75 74.5 90 78 90H114C117.25 90 120 92.75 120 96C120 99.5 117.25 102 114 102H78C74.5 102 72 99.5 72 96Z" fill="#17191F"/>
</svg>
