<svg width="192" height="192" viewBox="0 0 192 192" fill="none" xmlns="http://www.w3.org/2000/svg">
<path d="M30 32H41.25C46.75 32 51.75 35.25 54 40H156.75C163.25 40 168 46.25 166.25 52.75L156 90.75C154 98.75 146.75 104 138.75 104H66.5L68 111.25C68.5 114 71 116 73.75 116H146C149.25 116 152 118.75 152 122C152 125.5 149.25 128 146 128H73.75C65.25 128 57.75 122 56.25 113.5L43.25 45.75C43 44.75 42.25 44 41.25 44H30C26.5 44 24 41.5 24 38C24 34.75 26.5 32 30 32ZM56.75 52L64.25 92H138.75C141.5 92 143.75 90.25 144.5 87.75L154 52H56.75ZM68 160C63.5 160 59.75 157.75 57.5 154C55.25 150.5 55.25 145.75 57.5 142C59.75 138.5 63.5 136 68 136C72.25 136 76 138.5 78.25 142C80.5 145.75 80.5 150.5 78.25 154C76 157.75 72.25 160 68 160ZM152 148C152 152.5 149.5 156.25 146 158.5C142.25 160.75 137.5 160.75 134 158.5C130.25 156.25 128 152.5 128 148C128 143.75 130.25 140 134 137.75C137.5 135.5 142.25 135.5 146 137.75C149.5 140 152 143.75 152 148Z" fill="#17191F"/>
</svg>
