<svg width="24" height="24" viewBox="0 0 24 24" fill="none" xmlns="http://www.w3.org/2000/svg">
<path fill-rule="evenodd" clip-rule="evenodd" d="M20.7063 20.7049C21.0922 20.3076 21.0922 19.6606 20.7063 19.2746L13.4416 11.9986L20.7063 4.73389C21.0922 4.34796 21.1036 3.68959 20.7063 3.30366C20.309 2.90637 19.6506 2.90637 19.2647 3.30366L12 10.5683L4.73531 3.30366C4.34937 2.90637 3.67966 2.89502 3.29372 3.30366C2.90779 3.70094 2.90779 4.34796 3.29372 4.73389L10.5584 11.9986L3.29372 19.2746C2.90779 19.6606 2.89644 20.3189 3.29372 20.7049C3.69101 21.0908 4.34937 21.0908 4.73531 20.7049L12 13.4402L19.2647 20.7049C19.6506 21.0908 20.3203 21.1021 20.7063 20.7049Z" fill="#003BAF"/>
</svg>
