<svg width="24" height="24" viewBox="0 0 24 24" fill="none" xmlns="http://www.w3.org/2000/svg">
<path fill-rule="evenodd" clip-rule="evenodd" d="M3 3C1.89543 3 1 3.89543 1 5V19C1 20.1046 1.89543 21 3 21H21C22.1046 21 23 20.1046 23 19V5C23 3.89543 22.1046 3 21 3H3ZM4.41421 5H19.5859L12.7072 11.8788C12.3167 12.2693 11.6835 12.2693 11.293 11.8788L4.41421 5ZM3 17.5859L8.58586 12.0001L3 6.41421V17.5859ZM10.0035 13.4109L4.41436 19H19.5858L13.9967 13.4109C12.8611 14.4252 11.1391 14.4252 10.0035 13.4109ZM15.4143 12.0001L21 6.41437V17.5858L15.4143 12.0001Z" fill="black"/>
</svg>
