<svg width="24" height="24" viewBox="0 0 24 24" fill="none" xmlns="http://www.w3.org/2000/svg">
<path fill-rule="evenodd" clip-rule="evenodd" d="M18 16C18 17.1046 17.1046 18 16 18C14.8954 18 14 17.1046 14 16C14 14.8954 14.8954 14 16 14C17.1046 14 18 14.8954 18 16ZM18.032 19.4462C17.4365 19.7981 16.7418 20 16 20C13.7909 20 12 18.2091 12 16C12 13.7909 13.7909 12 16 12C18.2091 12 20 13.7909 20 16C20 16.7418 19.7981 17.4365 19.4462 18.032L21.7071 20.2929C22.0976 20.6834 22.0976 21.3166 21.7071 21.7071C21.3166 22.0976 20.6834 22.0976 20.2929 21.7071L18.032 19.4462Z" fill="black"/>
<path fill-rule="evenodd" clip-rule="evenodd" d="M3 3C3 2.44772 2.55228 2 2 2C1.44772 2 1 2.44772 1 3V16C1 16.5523 1.44772 17 2 17C2.55228 17 3 16.5523 3 16V3ZM6 2C6.55228 2 7 2.44772 7 3V16C7 16.5523 6.55228 17 6 17C5.44772 17 5 16.5523 5 16V3C5 2.44772 5.44772 2 6 2ZM11 3C11 2.44772 10.5523 2 10 2C9.44771 2 9 2.44772 9 3V16C9 16.5523 9.44771 17 10 17C10.0277 17 10.0552 16.9989 10.0824 16.9967C10.0282 16.6725 10 16.3395 10 16C10 14.7733 10.3682 13.6325 11 12.6822V3ZM15 10.083C14.2821 10.2034 13.6074 10.4513 13 10.8027V3C13 2.44772 13.4477 2 14 2C14.5523 2 15 2.44772 15 3V10.083ZM19 10.8027C18.3926 10.4513 17.7179 10.2034 17 10.083V3C17 2.44772 17.4477 2 18 2C18.5523 2 19 2.44772 19 3V10.8027ZM21.9176 16.9967C21.9718 16.6725 22 16.3395 22 16C22 14.7733 21.6318 13.6325 21 12.6822V3C21 2.44772 21.4477 2 22 2C22.5523 2 23 2.44772 23 3V16C23 16.5523 22.5523 17 22 17C21.9723 17 21.9448 16.9989 21.9176 16.9967Z" fill="black"/>
</svg>
