<svg width="192" height="192" viewBox="0 0 192 192" fill="none" xmlns="http://www.w3.org/2000/svg">
<path d="M20.25 63.5L30.5 42.75C31.25 41.25 33 40.25 34.75 40.5L96 48L75 82.75C73.25 86 69.5 87.5 66 86.5L25.25 74.75C20.25 73.5 18 68 20.25 63.5ZM96 48L157 40.5C158.75 40.25 160.5 41 161.25 42.75L171.5 63.5C173.75 68 171.5 73.5 166.5 74.75L125.75 86.5C122.25 87.5 118.5 86 116.75 82.75L96 48ZM95.5 64H96.25H95.5ZM148 88.5L160 85V126.75C160 132.25 156.25 137 150.75 138.5L99.75 151.25C97.25 151.75 94.5 151.75 92 151.25L41 138.5C35.75 137 32 132.25 32 126.75V85L44 88.5V126.75L90 138.25V78C90 74.75 92.5 72 96 72C99.25 72 102 74.75 102 78V138.25L148 126.75V88.5Z" fill="#17191F"/>
</svg>
