<svg width="24" height="24" viewBox="0 0 24 24" fill="none" xmlns="http://www.w3.org/2000/svg">
<path fill-rule="evenodd" clip-rule="evenodd" d="M5.03204 3.67784C6.30993 2.52665 8.14777 2.94632 9.08449 4.11708L10.8335 6.30305C11.7894 7.49777 11.5957 9.2412 10.4009 10.197C10.2332 10.3312 10.1002 10.5317 10.0443 10.7261C9.99011 10.9145 10.0251 11.0193 10.0587 11.071C10.2698 11.3949 11.1388 12.3761 11.8633 13.1008C12.211 13.4441 12.6397 13.8427 13.0314 14.1869C13.4422 14.548 13.757 14.8002 13.8953 14.8886C13.9481 14.9224 14.0546 14.9567 14.2438 14.9021C14.4387 14.8459 14.6399 14.713 14.7758 14.5454C15.7332 13.3636 17.4629 13.1714 18.6563 14.1144L20.8223 15.8257C22.0082 16.7627 22.4355 18.6216 21.262 19.9029C20.0305 21.2474 18.2461 22.1595 15.9141 21.8314C13.6513 21.513 11.0183 20.046 7.95577 17.0217L7.9513 17.0173L7.95131 17.0173C4.87907 13.9451 3.38896 11.305 3.06733 9.03509C2.73545 6.69285 3.66843 4.90625 5.03204 3.67784ZM7.52282 5.36656C7.16339 4.91732 6.63424 4.92636 6.37067 5.16379C5.41708 6.02284 4.82392 7.17627 5.04755 8.75451C5.28135 10.4046 6.42783 12.6648 9.36324 15.6008C12.2868 18.4873 14.5418 19.6186 16.1927 19.8509C17.7748 20.0735 18.9299 19.488 19.7871 18.5521C20.0272 18.2899 20.0388 17.7556 19.5824 17.395L17.4164 15.6836C17.0823 15.4196 16.5979 15.4734 16.3298 15.8043C15.9426 16.2823 15.3956 16.6514 14.7982 16.8237C14.195 16.9978 13.4648 16.9873 12.8177 16.5735C12.5335 16.3917 12.1122 16.0417 11.711 15.6891C11.2915 15.3204 10.8333 14.8945 10.4558 14.5217L10.4513 14.5173L10.4513 14.5173C9.73048 13.7965 8.72124 12.6819 8.38301 12.1627C7.96096 11.5149 7.94771 10.7801 8.12217 10.1734C8.29491 9.57271 8.66744 9.02256 9.15153 8.63528C9.48375 8.36951 9.5376 7.88473 9.27181 7.55253L7.52282 5.36656Z" fill="black"/>
</svg>
