<svg width="24" height="24" viewBox="0 0 24 24" fill="none" xmlns="http://www.w3.org/2000/svg">
<path fill-rule="evenodd" clip-rule="evenodd" d="M3 2.5C3 1.67157 3.67157 1 4.5 1H19.5C20.3284 1 21 1.67157 21 2.5V20.2929C21 20.6907 20.842 21.0723 20.5607 21.3536L19.0607 22.8536C18.4749 23.4394 17.5251 23.4394 16.9393 22.8536L16 21.9142L15.0607 22.8536C14.4749 23.4394 13.5251 23.4394 12.9393 22.8536L12 21.9142L11.0607 22.8536C10.4749 23.4394 9.52513 23.4394 8.93934 22.8536L8 21.9142L7.06066 22.8536C6.47487 23.4394 5.52513 23.4394 4.93934 22.8536L3.43934 21.3536C3.15803 21.0723 3 20.6907 3 20.2929V2.5ZM5 3V20.0858L6 21.0858L6.93934 20.1465C7.52513 19.5607 8.47487 19.5607 9.06066 20.1465L10 21.0858L10.9393 20.1465C11.5251 19.5607 12.4749 19.5607 13.0607 20.1465L14 21.0858L14.9393 20.1465C15.5251 19.5607 16.4749 19.5607 17.0607 20.1465L18 21.0858L19 20.0858V3H5ZM7 6C7 5.44772 7.44772 5 8 5H9C9.55229 5 10 5.44772 10 6C10 6.55228 9.55228 7 9 7H8C7.44772 7 7 6.55228 7 6ZM8 9C7.44772 9 7 9.44771 7 10C7 10.5523 7.44772 11 8 11H9C9.55228 11 10 10.5523 10 10C10 9.44771 9.55229 9 9 9H8ZM7 14C7 13.4477 7.44772 13 8 13H9C9.55229 13 10 13.4477 10 14C10 14.5523 9.55228 15 9 15H8C7.44772 15 7 14.5523 7 14ZM12 5C11.4477 5 11 5.44772 11 6C11 6.55228 11.4477 7 12 7H16C16.5523 7 17 6.55228 17 6C17 5.44772 16.5523 5 16 5H12ZM11 10C11 9.44771 11.4477 9 12 9H16C16.5523 9 17 9.44771 17 10C17 10.5523 16.5523 11 16 11H12C11.4477 11 11 10.5523 11 10ZM12 13C11.4477 13 11 13.4477 11 14C11 14.5523 11.4477 15 12 15H16C16.5523 15 17 14.5523 17 14C17 13.4477 16.5523 13 16 13H12Z" fill="black"/>
</svg>
