<svg width="24" height="24" viewBox="0 0 24 24" fill="none" xmlns="http://www.w3.org/2000/svg">
<path fill-rule="evenodd" clip-rule="evenodd" d="M15 9C14.94 7.75 14.28 6.9 12.5 6.9C11.9 6.9 11.4 7 10.99 7.17L9.52 5.7C9.97 5.46 10.47 5.28 11 5.16V3H14V5.19C16.09 5.7 17.14 7.28 17.21 9H15ZM4.06 5.33L5.33 4.06L19.94 18.68L18.67 19.95L16.45 17.73C15.82 18.3 14.96 18.67 14 18.85V21H11V18.83C9.08 18.42 7.44 17.19 7.32 15H9.52C9.63 16.18 10.44 17.1 12.5 17.1C13.87 17.1 14.58 16.67 14.92 16.19L11.41 12.68C9.06 11.98 7.5 10.85 7.5 8.77L4.06 5.33Z" fill="#003BAF"/>
</svg>
