<svg width="24" height="24" viewBox="0 0 24 24" fill="none" xmlns="http://www.w3.org/2000/svg">
<path fill-rule="evenodd" clip-rule="evenodd" d="M1.47409 1.13L0 2.54L4.58955 6.93L6.9 11.59L5.48864 14.04C5.32136 14.32 5.22727 14.65 5.22727 15C5.22727 16.1 6.16818 17 7.31818 17H15.1173L16.56 18.38C16.0373 18.74 15.6923 19.33 15.6923 20C15.6923 21.1 16.6227 22 17.7727 22C18.4732 22 19.09 21.67 19.4664 21.16L22.4355 24L23.9095 22.59L1.47409 1.13ZM7.31818 15L8.46818 13H10.9355L13.0264 15H7.31818ZM20.9091 4H7.44364L9.53455 6H19.1423L16.2568 11H14.7514L16.7795 12.94C17.3441 12.8 17.8145 12.45 18.0864 11.97L21.8291 5.48C22.2159 4.82 21.7036 4 20.9091 4ZM7.31818 18C6.16818 18 5.23773 18.9 5.23773 20C5.23773 21.1 6.16818 22 7.31818 22C8.46818 22 9.40909 21.1 9.40909 20C9.40909 18.9 8.46818 18 7.31818 18Z" fill="#003BAF"/>
</svg>
