<svg width="24" height="24" viewBox="0 0 24 24" fill="none" xmlns="http://www.w3.org/2000/svg">
<path fill-rule="evenodd" clip-rule="evenodd" d="M8.46452 11.293C8.85505 11.6835 8.85505 12.3167 8.46452 12.7072L4.22206 16.9497C3.83153 17.3402 3.83153 17.9734 4.22206 18.3639L5.63627 19.7781C6.0268 20.1686 6.65996 20.1686 7.05048 19.7781L11.293 15.5356C11.6835 15.1451 12.3166 15.1451 12.7072 15.5356L16.9497 19.7781C17.3402 20.1687 17.9734 20.1687 18.3639 19.7781L19.7781 18.3639C20.1686 17.9734 20.1686 17.3402 19.7781 16.9497L15.5356 12.7072C15.1451 12.3167 15.1451 11.6835 15.5356 11.293L19.7784 7.05018C20.1689 6.65966 20.1689 6.02649 19.7784 5.63597L18.3642 4.22176C17.9737 3.83123 17.3405 3.83123 16.95 4.22176L12.7072 8.46457C12.3166 8.85509 11.6835 8.85509 11.293 8.46457L7.05018 4.2218C6.65966 3.83128 6.02649 3.83128 5.63597 4.2218L4.22176 5.63601C3.83123 6.02654 3.83123 6.6597 4.22176 7.05023L8.46452 11.293Z" fill="black"/>
</svg>
