<svg width="160" height="180" viewBox="0 0 160 180" fill="none" xmlns="http://www.w3.org/2000/svg">
<rect width="160" height="160" rx="80" fill="#E6ECF9"/>
<path fill-rule="evenodd" clip-rule="evenodd" d="M37.623 30.582L59.6738 77.5H122.306L149.468 28.2422L65.9762 26.4307L37.623 30.582Z" fill="white"/>
<path fill-rule="evenodd" clip-rule="evenodd" d="M130.352 79.76C127.633 84.72 122.355 88 116.357 88H56.7789L47.9822 104H143.947V120H47.9822C35.8267 120 28.1495 106.96 33.9874 96.24L44.7834 76.72L15.9941 16H0V0H26.1503L33.6675 16H152.024C158.101 16 161.94 22.56 158.981 27.84L130.352 79.76ZM138.429 32H41.2647L60.2176 72H116.357L138.429 32ZM47.9822 128C39.1854 128 32.0681 135.2 32.0681 144C32.0681 152.8 39.1854 160 47.9822 160C56.7789 160 63.9762 152.8 63.9762 144C63.9762 135.2 56.7789 128 47.9822 128ZM112.038 144C112.038 135.2 119.156 128 127.952 128C136.749 128 143.947 135.2 143.947 144C143.947 152.8 136.749 160 127.952 160C119.156 160 112.038 152.8 112.038 144Z" fill="#012169"/>
</svg>
