<svg width="70" height="33" viewBox="0 0 70 33" fill="none" xmlns="http://www.w3.org/2000/svg">
<mask id="mask0_2312_255434" style="mask-type:alpha" maskUnits="userSpaceOnUse" x="0" y="0" width="70" height="33">
<path fill-rule="evenodd" clip-rule="evenodd" d="M0 32.1369H69.8791V0.00976562H0V32.1369Z" fill="white"/>
</mask>
<g mask="url(#mask0_2312_255434)">
<path fill-rule="evenodd" clip-rule="evenodd" d="M7.12494 9.24301V12.4021H1.48357V30.6634H68.3944V12.4021H62.7563V9.24301H52.6868L34.9581 1.62826L17.2323 9.24301H7.12494ZM16.8957 7.75441L34.9417 0.00976562L52.9899 7.75441H64.2409V10.9135H69.8791V32.1498H0V10.9135H5.63813V7.75441H16.8957V7.75441V7.75441Z" fill="white"/>
</g>
<path fill-rule="evenodd" clip-rule="evenodd" d="M51.6105 13.4023L51.6094 16.8346L53.8257 16.8389L54.2877 13.4034L51.6105 13.4023" fill="white"/>
<path fill-rule="evenodd" clip-rule="evenodd" d="M63.6477 16.7879C63.7927 16.7879 63.9204 16.7771 63.9204 16.6014C63.9204 16.4646 63.7938 16.4398 63.677 16.4398H63.4444V16.7879H63.6477V16.7879ZM63.4444 17.4177H63.2766V16.2946H63.7031C63.9671 16.2946 64.0957 16.3932 64.0957 16.6144C64.0957 16.8148 63.9723 16.9037 63.808 16.9234L64.1261 17.4177H63.9368L63.6413 16.9309H63.4444V17.4177V17.4177ZM63.6499 17.6669C64.0903 17.6669 64.4367 17.3245 64.4367 16.855C64.4367 16.3932 64.0903 16.0452 63.6499 16.0452C63.2051 16.0452 62.859 16.3932 62.859 16.855C62.859 17.3245 63.2051 17.6669 63.6499 17.6669ZM62.6641 16.855C62.6641 16.2946 63.1164 15.8838 63.6499 15.8838C64.1812 15.8838 64.6346 16.2946 64.6346 16.855C64.6346 17.4177 64.1812 17.8285 63.6499 17.8285C63.1164 17.8285 62.6641 17.4177 62.6641 16.855V16.855Z" fill="white"/>
<path fill-rule="evenodd" clip-rule="evenodd" d="M11.1495 25.0986V13.4023H7.95508V27.8857H16.0917V25.0986H11.1495" fill="white"/>
<path fill-rule="evenodd" clip-rule="evenodd" d="M43.3008 27.8856H50.903V25.0953H46.5117V23.2772H50.903V20.5941H46.5117V18.7663H50.903V15.9639H43.3008V27.8856" fill="white"/>
<path fill-rule="evenodd" clip-rule="evenodd" d="M20.5817 25.0866H23.391V18.7663H20.5817V25.0866V25.0866ZM26.591 26.3625C26.591 27.2049 25.9112 27.8856 25.0716 27.8856H18.9011C18.0624 27.8856 17.3828 27.2049 17.3828 26.3625V17.4881C17.3828 16.647 18.0624 15.9639 18.9011 15.9639H25.0716C25.9112 15.9639 26.591 16.647 26.591 17.4881V26.3625V26.3625V26.3625Z" fill="white"/>
<path fill-rule="evenodd" clip-rule="evenodd" d="M38.2754 15.9639V25.0985H36.346V15.9639H33.5376V25.0985H31.6093V15.9639H28.4082V26.3625C28.4082 27.2049 29.0901 27.8856 29.9288 27.8856H33.711C34.3481 27.8856 34.9413 27.4454 34.9413 26.807C34.9413 27.4454 35.5364 27.8856 36.1728 27.8856H39.9548C40.7946 27.8856 41.4754 27.2049 41.4754 26.3625V15.9639H38.2754" fill="white"/>
<path fill-rule="evenodd" clip-rule="evenodd" d="M62.1204 23.3809L62.1214 23.3833L62.101 23.3397C62.0889 23.316 62.0771 23.291 62.0641 23.2661L62.0435 23.2271C61.5371 22.2112 60.404 21.3602 58.5796 20.6296L58.5146 20.6046C58.1543 20.4637 57.0536 20.0311 56.9324 19.3318C56.899 19.1356 56.9778 18.8277 57.1954 18.6413C57.4271 18.4072 57.7775 18.2879 58.2441 18.2879C58.9874 18.2879 59.8338 18.5926 60.2719 18.7725C61.1951 19.1561 62.0034 19.4988 62.0133 19.5009L62.0943 19.5357V16.9339L62.0661 16.9167C62.0478 16.9046 60.3044 15.8031 58.5394 15.5495C58.3371 15.5323 58.1368 15.5234 57.9443 15.5234C56.3211 15.5234 55.0917 16.1155 54.2909 17.2798C53.6189 18.237 53.5442 19.7515 54.1166 20.8821C54.8515 22.1603 56.0299 22.6937 57.1706 23.2109C57.6401 23.4221 58.126 23.6444 58.5816 23.9143L58.5872 23.9175C59.1022 24.2265 59.363 24.7004 59.2547 25.1222C59.1433 25.5568 58.6455 25.8506 58.0147 25.8506C57.9281 25.8506 57.8415 25.8442 57.7571 25.8353L57.7267 25.831C56.5158 25.6608 54.0615 24.7459 54.0357 24.7373L53.9577 24.7068V27.5623L53.9978 27.5742C54.0204 27.5831 56.3967 28.371 58.5071 28.371C59.6585 28.371 60.5284 28.1369 61.0891 27.6804C61.1031 27.6709 62.392 26.6332 62.4493 24.8674C62.4645 24.3774 62.3541 23.8785 62.1204 23.3809" fill="white"/>
</svg>
