<svg width="24" height="24" viewBox="0 0 24 24" fill="none" xmlns="http://www.w3.org/2000/svg">
<path fill-rule="evenodd" clip-rule="evenodd" d="M5.56051 2.57909C5.8447 2.21371 6.28166 2 6.74454 2H17.2555C17.7183 2 18.1553 2.21371 18.4395 2.57909L21.684 6.75064C21.8888 7.01394 22 7.33799 22 7.67155V20.5C22 21.3284 21.3284 22 20.5 22H3.5C2.67157 22 2 21.3284 2 20.5V7.67155C2 7.33799 2.11118 7.01394 2.31597 6.75064L5.56051 2.57909ZM6.98908 4L5.04464 6.5H11V4H6.98908ZM13 4V6.5H18.9554L17.0109 4H13ZM4 20V8.5H20V20H4Z" fill="black"/>
</svg>
