<svg width="160" height="184" viewBox="0 0 160 184" fill="none" xmlns="http://www.w3.org/2000/svg">
<rect y="18" width="160" height="160" rx="80" fill="#E6ECF9"/>
<path d="M36 136.619H32.5V4.11914H128.5V136.619L125.5 137.619L111.5 127.119L96.5 137.619L80.5 127.119L65.5 137.619L50.5 127.119L36 136.619Z" fill="white"/>
<path d="M59.3036 30.8885C56.577 30.8885 54.5319 28.1148 54.5319 26.0346C54.5319 23.2609 56.577 21.1807 59.3036 21.1807H62.0303C64.757 21.1807 66.802 23.2609 66.802 26.0346C66.802 28.8082 64.757 30.8885 62.0303 30.8885H59.3036Z" fill="#012169"/>
<path d="M75.9695 30.8885C73.2351 30.8885 71.1842 28.1148 71.1842 26.0346C71.1842 23.2609 73.2351 21.1807 75.9695 21.1807H100.58C103.314 21.1807 105.365 23.2609 105.365 26.0346C105.365 28.8082 103.314 30.8885 100.58 30.8885H75.9695Z" fill="#012169"/>
<path d="M71.1842 43.6851C71.1842 45.7654 73.2351 48.539 75.9695 48.539H100.58C103.314 48.539 105.365 45.7654 105.365 43.6851C105.365 41.6049 103.314 38.8312 100.58 38.8312H75.9695C73.2351 38.8312 71.1842 40.9115 71.1842 43.6851Z" fill="#012169"/>
<path d="M59.3036 48.539C56.577 48.539 54.5319 45.7654 54.5319 43.6851C54.5319 40.9115 56.577 38.8312 59.3036 38.8312H62.0303C64.757 38.8312 66.802 41.6049 66.802 43.6851C66.802 45.7654 64.757 48.539 62.0303 48.539H59.3036Z" fill="#012169"/>
<path d="M71.1842 62.2182C71.1842 64.2984 73.2351 67.0721 75.9695 67.0721H100.58C103.314 67.0721 105.365 64.2984 105.365 62.2182C105.365 60.1379 103.314 57.3643 100.58 57.3643H75.9695C73.2351 57.3643 71.1842 59.4445 71.1842 62.2182Z" fill="#012169"/>
<path d="M59.3036 67.0721C56.577 67.0721 54.5319 64.2984 54.5319 62.2182C54.5319 59.4445 56.577 57.3643 59.3036 57.3643H62.0303C64.757 57.3643 66.802 60.1379 66.802 62.2182C66.802 64.2984 64.757 67.0721 62.0303 67.0721H59.3036Z" fill="#012169"/>
<path d="M71.1842 79.8687C71.1842 81.949 73.2351 84.7226 75.9695 84.7226H100.58C103.314 84.7226 105.365 81.949 105.365 79.8687C105.365 77.7885 103.314 75.0148 100.58 75.0148H75.9695C73.2351 75.0148 71.1842 77.0951 71.1842 79.8687Z" fill="#012169"/>
<path d="M59.3036 84.7226C56.577 84.7226 54.5319 81.949 54.5319 79.8687C54.5319 77.0951 56.577 75.0148 59.3036 75.0148H62.0303C64.757 75.0148 66.802 77.7885 66.802 79.8687C66.802 81.949 64.757 84.7226 62.0303 84.7226H59.3036Z" fill="#012169"/>
<path d="M107.879 107.845H110.508C111.823 107.845 113.138 106.433 113.138 105.021C113.138 103.609 111.823 102.197 110.508 102.197H107.879C106.565 102.197 105.25 103.609 105.25 105.021C105.25 106.433 106.565 107.845 107.879 107.845Z" fill="#012169"/>
<path d="M51.0189 108.021H53.7563C55.125 108.021 56.4936 106.609 56.4936 105.197C56.4936 103.785 55.125 102.373 53.7563 102.373H51.0189C49.6503 102.373 48.2816 103.785 48.2816 105.197C48.2816 106.609 49.6503 108.021 51.0189 108.021Z" fill="#012169"/>
<path d="M67.4431 108.021H64.7057C63.337 108.021 61.9684 106.609 61.9684 105.197C61.9684 103.785 63.337 102.373 64.7057 102.373H67.4431C68.8118 102.373 70.1804 103.785 70.1804 105.197C70.1804 106.609 68.8118 108.021 67.4431 108.021Z" fill="#012169"/>
<path d="M79.0769 108.021H81.8142C83.1829 108.021 84.5516 106.609 84.5516 105.197C84.5516 103.785 83.1829 102.373 81.8142 102.373H79.0769C77.7082 102.373 76.3395 103.785 76.3395 105.197C76.3395 106.609 77.7082 108.021 79.0769 108.021Z" fill="#012169"/>
<path d="M92.7637 108.021H95.501C97.554 108.021 98.2384 106.609 98.2384 105.197C98.2384 103.785 96.8697 102.373 95.501 102.373H92.7637C91.395 102.373 90.0263 103.785 90.0263 105.197C90.0263 106.609 91.395 108.021 92.7637 108.021Z" fill="#012169"/>
<path d="M37.9396 107.845H39.3419C40.7442 107.845 42.1465 106.433 42.1465 105.021C42.1465 103.609 40.7442 102.197 39.3419 102.197H37.9396C36.5373 102.197 35.135 103.609 35.135 105.021C35.135 106.433 36.5373 107.845 37.9396 107.845Z" fill="#012169"/>
<path fill-rule="evenodd" clip-rule="evenodd" d="M96.6783 140.322C95.3111 140.322 93.9438 139.634 92.5766 138.946L80.9551 130.692L69.3335 138.946C68.6499 139.634 67.2827 140.322 65.9154 140.322C64.5482 140.322 63.181 139.634 61.8137 138.946L50.1922 130.692L39.9379 138.258C39.2543 138.946 37.2034 139.634 35.8362 139.634H33.7853C31.0509 139.634 29 136.883 29 134.131V8.25423C29 3.43926 32.4181 0 37.2034 0H123.339C128.125 0 131.543 3.43926 131.543 8.25423V133.443C131.543 136.195 129.492 138.946 126.758 139.634H125.39C124.023 139.634 121.972 138.946 121.289 138.258L111.034 131.38L99.4128 139.634C99.4128 139.634 98.0456 140.322 96.6783 140.322ZM65.7288 134.449L80.326 124.105L96.3449 134.449L110.578 124.105L125.575 134.449L125.771 106.832C125.342 107.433 124.615 107.845 123.48 107.845H122.077C120.675 107.845 119.273 106.433 119.273 105.021C119.273 103.609 120.675 102.197 122.077 102.197H123.48C124.371 102.197 125.263 102.768 125.794 103.546L126.488 5.82029H34.7388L34.1643 134.449L50.611 124.105L65.7288 134.449Z" fill="#012169"/>
<path fill-rule="evenodd" clip-rule="evenodd" d="M75.9695 30.8885C73.2351 30.8885 71.1842 28.1148 71.1842 26.0346C71.1842 23.2609 73.2351 21.1807 75.9695 21.1807H100.58C103.314 21.1807 105.365 23.2609 105.365 26.0346C105.365 28.8082 103.314 30.8885 100.58 30.8885H75.9695Z" fill="#012169"/>
<path fill-rule="evenodd" clip-rule="evenodd" d="M59.3036 30.8885C56.577 30.8885 54.5319 28.1148 54.5319 26.0346C54.5319 23.2609 56.577 21.1807 59.3036 21.1807H62.0303C64.757 21.1807 66.802 23.2609 66.802 26.0346C66.802 28.8082 64.757 30.8885 62.0303 30.8885H59.3036Z" fill="#012169"/>
<path fill-rule="evenodd" clip-rule="evenodd" d="M75.9695 48.539C73.2351 48.539 71.1842 45.7654 71.1842 43.6851C71.1842 40.9115 73.2351 38.8312 75.9695 38.8312H100.58C103.314 38.8312 105.365 41.6049 105.365 43.6851C105.365 45.7654 103.314 48.539 100.58 48.539H75.9695Z" fill="#012169"/>
<path fill-rule="evenodd" clip-rule="evenodd" d="M59.3036 48.539C56.577 48.539 54.5319 45.7654 54.5319 43.6851C54.5319 40.9115 56.577 38.8312 59.3036 38.8312H62.0303C64.757 38.8312 66.802 41.6049 66.802 43.6851C66.802 45.7654 64.757 48.539 62.0303 48.539H59.3036Z" fill="#012169"/>
<path fill-rule="evenodd" clip-rule="evenodd" d="M75.9695 67.0721C73.2351 67.0721 71.1842 64.2984 71.1842 62.2182C71.1842 59.4445 73.2351 57.3643 75.9695 57.3643H100.58C103.314 57.3643 105.365 60.1379 105.365 62.2182C105.365 64.2984 103.314 67.0721 100.58 67.0721H75.9695Z" fill="#012169"/>
<path fill-rule="evenodd" clip-rule="evenodd" d="M59.3036 67.0721C56.577 67.0721 54.5319 64.2984 54.5319 62.2182C54.5319 59.4445 56.577 57.3643 59.3036 57.3643H62.0303C64.757 57.3643 66.802 60.1379 66.802 62.2182C66.802 64.2984 64.757 67.0721 62.0303 67.0721H59.3036Z" fill="#012169"/>
<path fill-rule="evenodd" clip-rule="evenodd" d="M75.9695 84.7226C73.2351 84.7226 71.1842 81.949 71.1842 79.8687C71.1842 77.0951 73.2351 75.0148 75.9695 75.0148H100.58C103.314 75.0148 105.365 77.7885 105.365 79.8687C105.365 81.949 103.314 84.7226 100.58 84.7226H75.9695Z" fill="#012169"/>
<path fill-rule="evenodd" clip-rule="evenodd" d="M59.3036 84.7226C56.577 84.7226 54.5319 81.949 54.5319 79.8687C54.5319 77.0951 56.577 75.0148 59.3036 75.0148H62.0303C64.757 75.0148 66.802 77.7885 66.802 79.8687C66.802 81.949 64.757 84.7226 62.0303 84.7226H59.3036Z" fill="#012169"/>
<path fill-rule="evenodd" clip-rule="evenodd" d="M92.5766 138.946C93.9438 139.634 95.3111 140.322 96.6783 140.322C98.0456 140.322 99.4128 139.634 99.4128 139.634L111.034 131.38L121.289 138.258C121.972 138.946 124.023 139.634 125.39 139.634H126.758C129.492 138.946 131.543 136.195 131.543 133.443V8.25423C131.543 3.43926 128.125 0 123.339 0H37.2034C32.4181 0 29 3.43926 29 8.25423V134.131C29 136.883 31.0509 139.634 33.7853 139.634H35.8362C37.2034 139.634 39.2543 138.946 39.9379 138.258L50.1922 130.692L61.8137 138.946C63.181 139.634 64.5482 140.322 65.9154 140.322C67.2827 140.322 68.6499 139.634 69.3335 138.946L80.9551 130.692L92.5766 138.946ZM80.326 124.105L65.7288 134.449L50.611 124.105L34.1643 134.449L34.7388 5.82029H126.488L125.575 134.449L110.578 124.105L96.3449 134.449L80.326 124.105Z" fill="#012169"/>
<path fill-rule="evenodd" clip-rule="evenodd" d="M123.48 107.845H122.077C120.675 107.845 119.273 106.433 119.273 105.021C119.273 103.609 120.675 102.197 122.077 102.197H123.48C124.882 102.197 126.284 103.609 126.284 105.021C126.284 106.433 125.583 107.845 123.48 107.845Z" fill="#012169"/>
<path fill-rule="evenodd" clip-rule="evenodd" d="M110.508 107.845H107.879C106.565 107.845 105.25 106.433 105.25 105.021C105.25 103.609 106.565 102.197 107.879 102.197H110.508C111.823 102.197 113.138 103.609 113.138 105.021C113.138 106.433 111.823 107.845 110.508 107.845Z" fill="#012169"/>
<path fill-rule="evenodd" clip-rule="evenodd" d="M51.0189 108.021H53.7563C55.125 108.021 56.4936 106.609 56.4936 105.197C56.4936 103.785 55.125 102.373 53.7563 102.373H51.0189C49.6503 102.373 48.2816 103.785 48.2816 105.197C48.2816 106.609 49.6503 108.021 51.0189 108.021ZM67.4431 108.021H64.7057C63.337 108.021 61.9684 106.609 61.9684 105.197C61.9684 103.785 63.337 102.373 64.7057 102.373H67.4431C68.8118 102.373 70.1804 103.785 70.1804 105.197C70.1804 106.609 68.8118 108.021 67.4431 108.021ZM79.0769 108.021H81.8142C83.1829 108.021 84.5516 106.609 84.5516 105.197C84.5516 103.785 83.1829 102.373 81.8142 102.373H79.0769C77.7082 102.373 76.3395 103.785 76.3395 105.197C76.3395 106.609 77.7082 108.021 79.0769 108.021ZM92.7637 108.021H95.501C97.554 108.021 98.2384 106.609 98.2384 105.197C98.2384 103.785 96.8697 102.373 95.501 102.373H92.7637C91.395 102.373 90.0263 103.785 90.0263 105.197C90.0263 106.609 91.395 108.021 92.7637 108.021Z" fill="#012169"/>
<path fill-rule="evenodd" clip-rule="evenodd" d="M39.3419 107.845H37.9396C36.5373 107.845 35.135 106.433 35.135 105.021C35.135 103.609 36.5373 102.197 37.9396 102.197H39.3419C40.7442 102.197 42.1465 103.609 42.1465 105.021C42.1465 106.433 40.7442 107.845 39.3419 107.845Z" fill="#012169"/>
<path d="M33.5 5.11914H127.5V136.619H124.5" stroke="black"/>
<path d="M32.5 4.11914V138.619" stroke="black"/>
</svg>
